<svg width="29" height="29" viewBox="0 0 29 29" fill="none" xmlns="http://www.w3.org/2000/svg">
<g clip-path="url(#clip0_662_5910)">
<path d="M9.14164 7.36605L14.5 12.7245L19.8583 7.36605C20.3052 6.91916 21.0134 6.87754 21.5424 7.29083L21.6339 7.3742C22.122 7.86227 22.122 8.65359 21.6339 9.14167L16.2755 14.5L21.6339 19.8583C22.0808 20.3052 22.1225 21.0134 21.7092 21.5424L21.6258 21.6339C21.1377 22.122 20.3464 22.122 19.8583 21.6339L14.5 16.2755L9.14164 21.6339C8.69475 22.0808 7.98662 22.1225 7.45761 21.7092L7.36606 21.6258C6.87798 21.1377 6.87798 20.3464 7.36606 19.8583L12.7245 14.5L7.36606 9.14166C6.91916 8.69477 6.87754 7.98661 7.29083 7.4576L7.37418 7.36605C7.86225 6.87798 8.65357 6.87798 9.14164 7.36605ZM8.26793 21.3749C8.2646 21.375 8.26126 21.375 8.25793 21.375L8.26793 21.3749ZM8.3509 21.3681L8.32351 21.3716C8.33258 21.3706 8.34176 21.3695 8.3509 21.3681ZM8.16581 21.3682L8.17695 21.3698C8.17317 21.3693 8.16958 21.3688 8.16581 21.3682ZM8.08726 21.3514L8.09703 21.354C8.09366 21.3531 8.09062 21.3523 8.08726 21.3514ZM8.43024 21.3509L8.39656 21.3595C8.40781 21.357 8.41906 21.3541 8.43024 21.3509ZM8.50097 21.326L8.47499 21.3362C8.48364 21.333 8.49232 21.3296 8.50097 21.326ZM8.01478 21.3259C8.01627 21.3266 8.01786 21.3272 8.01478 21.3259V21.3259ZM7.94146 21.2891L7.87501 21.244C7.90277 21.2656 7.93189 21.2845 7.9621 21.3007L7.94146 21.2891ZM8.57409 21.2893L8.55399 21.3006C8.56059 21.297 8.56736 21.2932 8.57409 21.2893ZM21.3007 21.0379L21.2891 21.0585L21.244 21.125C21.2655 21.0972 21.2845 21.0681 21.3007 21.0379ZM21.3353 20.9616L21.3259 20.9852C21.3293 20.9773 21.3324 20.9695 21.3353 20.9616ZM21.3592 20.8819L21.3513 20.9127C21.3542 20.9027 21.3569 20.8923 21.3592 20.8819ZM21.3715 20.808L21.3682 20.8342C21.3695 20.8256 21.3706 20.8168 21.3715 20.808ZM20.7421 8.24978L14.5 14.492L8.25793 8.24978L8.24977 8.25793L14.492 14.5L8.24977 20.7421L8.25793 20.7502L14.5 14.508L20.7421 20.7502L20.7502 20.7421L14.508 14.5L20.7502 8.25793L20.7421 8.24978ZM21.3749 20.7321L21.375 20.7502C21.375 20.7442 21.375 20.7381 21.3749 20.7321ZM21.3681 20.6491L21.3716 20.6765C21.3706 20.6674 21.3695 20.6583 21.3681 20.6491ZM21.3509 20.5697L21.3595 20.6034C21.357 20.5922 21.3541 20.5809 21.3509 20.5697ZM21.326 20.499L21.3362 20.525C21.333 20.5164 21.3296 20.5077 21.326 20.499ZM21.2893 20.4259L21.3006 20.446C21.297 20.4394 21.2932 20.4326 21.2893 20.4259ZM7.69942 8.55399L7.70884 8.57089C7.70556 8.56521 7.70252 8.55974 7.69942 8.55399ZM7.66375 8.47497L7.67215 8.49651C7.66919 8.48933 7.66643 8.48223 7.66375 8.47497ZM7.64048 8.39657L7.64598 8.41882C7.64401 8.41141 7.64217 8.40403 7.64048 8.39657ZM7.62816 8.32101L7.63022 8.33892C7.62944 8.33293 7.62877 8.32702 7.62816 8.32101ZM7.62526 8.23979L7.625 8.25793C7.625 8.25185 7.62509 8.24588 7.62526 8.23979ZM7.63179 8.16579L7.63022 8.17694C7.63071 8.17316 7.63123 8.16957 7.63179 8.16579ZM7.64865 8.08728L7.64598 8.09704C7.64687 8.09367 7.6477 8.09064 7.64865 8.08728ZM7.67405 8.01478C7.67276 8.01786 7.67342 8.01627 7.67405 8.01478V8.01478ZM7.7109 7.94147L7.75603 7.875C7.73445 7.90275 7.71552 7.93191 7.69927 7.96212L7.7109 7.94147ZM8.55372 7.69928L8.5744 7.71089L8.64085 7.75602C8.6131 7.73444 8.58393 7.71552 8.55372 7.69928ZM20.446 7.69941L20.4291 7.70885C20.4348 7.70556 20.4402 7.7025 20.446 7.69941ZM7.96187 7.69941L7.94497 7.70885C7.95065 7.70556 7.95612 7.7025 7.96187 7.69941ZM21.0379 7.69928L21.0585 7.71089L21.125 7.75602C21.0972 7.73444 21.0681 7.71552 21.0379 7.69928ZM8.0384 7.66468L8.01936 7.67217C8.02566 7.66957 8.03203 7.66706 8.0384 7.66468ZM8.47487 7.66371L8.50108 7.67407C8.49234 7.67039 8.48364 7.66695 8.47487 7.66371ZM20.525 7.66375L20.5035 7.67217C20.5107 7.66921 20.5177 7.66643 20.525 7.66375ZM20.9616 7.66469L20.9852 7.67407C20.9773 7.67075 20.9695 7.66764 20.9616 7.66469ZM8.11828 7.64072L8.09703 7.64596C8.10402 7.64411 8.11123 7.64233 8.11828 7.64072ZM8.39652 7.64048L8.43036 7.64914C8.41909 7.64592 8.40783 7.64304 8.39652 7.64048ZM20.6034 7.64049L20.5812 7.64596C20.5886 7.644 20.596 7.64218 20.6034 7.64049ZM20.8819 7.64076L20.9127 7.64864C20.9027 7.64581 20.8923 7.64315 20.8819 7.64076ZM8.19461 7.62819L8.17695 7.63024C8.18278 7.62948 8.18876 7.62879 8.19461 7.62819ZM8.32091 7.62816L8.35082 7.63191C8.3409 7.63042 8.33092 7.62917 8.32091 7.62816ZM20.679 7.62817L20.6611 7.63024C20.6671 7.62946 20.673 7.62878 20.679 7.62817ZM20.8055 7.62821L20.8342 7.63179C20.8248 7.63039 20.8152 7.62919 20.8055 7.62821ZM20.7239 7.62526L20.7603 7.62526C20.7482 7.62491 20.7361 7.62491 20.7239 7.62526ZM8.2397 7.62526L8.27605 7.62526C8.26394 7.62491 8.25181 7.62491 8.2397 7.62526Z" fill="white"/>
</g>
<defs>
<clipPath id="clip0_662_5910">
<rect width="15" height="15" fill="white" transform="translate(7 7)"/>
</clipPath>
</defs>
</svg>
